# xmcd CD database file
#
# Track frame offsets:
#	150
#	14955
#	33325
#	45201
#	59370
#	74037
#	91830
#	107600
#	123830
#	141114
#	156672
#	173549
#	184505
#	201840
#	218342
#	242822
#	262685
#	279082
#	293312
#	307047
#
# Disc length: 4381 seconds
#
# Revision: 0
# Processed by: cddbd v1.5.1PL2 Copyright (c) Steve Scherf et al.
# Submitted via: CDex 1.51
#
DISCID=10111b14
DTITLE=jean-paul amouroux - nothin' but boogie woogie
DYEAR=1992
DGENRE=Blues
TTITLE0=boogin' in versailles
TTITLE1=lorraine boogie woogie
TTITLE2=champelle boulevard boogie
TTITLE3=villers boogie woogie
TTITLE4=blues for the girl of my life
TTITLE5=fast boogie for vero
TTITLE6=neuilly boogie woogie
TTITLE7=dedication for veronique
TTITLE8=a girl from nancy
TTITLE9=slow blues for veronique
TTITLE10=half quarter boogie
TTITLE11=megeve boogie woogie
TTITLE12=five streets boogie
TTITLE13=medium boogie for vero
TTITLE14=blues for a wonderful girl
TTITLE15=savoie boogie train
TTITLE16=veronique special
TTITLE17=april 18th boogie
TTITLE18=1962 boogie
TTITLE19=happy boogie for veronique
EXTD=YEAR: 1992
EXTT0=
EXTT1=
EXTT2=
EXTT3=
EXTT4=
EXTT5=
EXTT6=
EXTT7=
EXTT8=
EXTT9=
EXTT10=
EXTT11=
EXTT12=
EXTT13=
EXTT14=
EXTT15=
EXTT16=
EXTT17=
EXTT18=
EXTT19=
PLAYORDER=
